<?xml version="1.0" standalone="yes"?>
<svg xmlns="http://www.w3.org/2000/svg" width="649" height="385">
<path style="fill:#000000; stroke:none;" d="M0 0L0 385L649 385L649 0L0 0z"/>
<path style="fill:#550055; stroke:none;" d="M226 6C228.89 7.21295 231.874 6.99829 235 7C232.11 5.78705 229.126 6.00171 226 6z"/>
<path style="fill:#400040; stroke:none;" d="M235 6C238.959 7.6611 243.74 7 248 7L272 7C268.041 5.3389 263.26 6 259 6L235 6z"/>
<path style="fill:#550055; stroke:none;" d="M272 6C279.159 9.00415 290.256 7 298 7L356 7C348.841 3.99585 337.744 6 330 6L272 6M357 6C360.699 7.552 365.017 7 369 7L390 7L464 7C460.301 5.44797 455.983 6 452 6L431 6L357 6z"/>
<path style="fill:#000055; stroke:none;" d="M464 6C466.613 7.09772 469.164 6.9928 472 7C469.387 5.90228 466.836 6.0072 464 6z"/>
<path style="fill:#550055; stroke:none;" d="M472 6C475.959 7.66113 480.74 7 485 7L509 7C505.041 5.33893 500.26 6 496 6L472 6z"/>
<path style="fill:#6b2868; stroke:none;" d="M215 7C218.959 8.6611 223.74 8 228 8L253 8L339 8L640 8C636.041 6.33893 631.26 7 627 7L603 7C574.338 7 545.66 7.29099 517 6.99615C416.386 5.96115 315.644 7 215 7z"/>
<path style="fill:#550055; stroke:none;" d="M510 6C517.399 9.10495 528.993 7 537 7L599 7C591.6 3.89505 580.007 6 572 6L510 6z"/>
<path style="fill:#370737; stroke:none;" d="M205 7C208.163 8.32736 211.586 7.99963 215 8C211.837 6.67264 208.414 7.00037 205 7z"/>
<path style="fill:#390039; stroke:none;" d="M640.667 7.33334C640.222 7.77762 641.278 7.72229 641.333 7.66666C641.778 7.22205 640.722 7.27792 640.667 7.33334z"/>
<path style="fill:#4e143b; stroke:none;" d="M196 8C198.332 8.98453 200.457 8.98126 203 9C200.668 8.01547 198.543 8.01874 196 8z"/>
<path style="fill:#80287e; stroke:none;" d="M178 13C180.859 14.1273 183.937 13.6559 187 14C195.693 7.15817 212.525 9 223 9L307 9L639 9L639 14C640.416 11.9585 640.745 10.489 641 8L330 8L240 8C219.228 8 198.006 6.65805 178 13z"/>
<path style="fill:#531a4e; stroke:none;" d="M641 8L641 11C641.696 9.44632 641.696 9.55368 641 8z"/>
<path style="fill:#89298b; stroke:none;" d="M196 10C199.67 12.9421 203.687 12.3072 208 11C209.104 16.1505 219.595 14 224 14L224 12C220.214 11.9975 216.694 11.8795 213 11C218.567 9.35513 222.509 11.2547 228 11.8712C235.178 12.6771 242.779 12 250 12L340 12L637 12C634.747 9.04083 631.585 9.04813 628 9.00385C621.669 8.92563 615.332 9 609 9L528 9C417.338 9 306.577 9.08478 196 10z"/>
<path style="fill:#8f268d; stroke:none;" d="M634 9L637 12C502.343 12 367.654 12.8653 233 11.9992C226.227 11.9557 219.867 10 213 10C215.837 12.1494 218.602 11.7241 222 12.4553C230.038 14.1848 237.77 14 246 14L326 14L636 14C635.511 19.4153 632.944 24.4865 630 29C630 27.2032 629.986 27.4785 629 26L627 26C625.814 31.0277 626.133 35.1862 628 40C631.898 35.8319 632.373 31.2955 634.299 26.1698C636.584 20.0893 638.977 15.6758 639 9L634 9z"/>
<path style="fill:#6d245b; stroke:none;" d="M186 10C187.769 10.7789 189.036 10.9124 191 11C189.231 10.221 187.964 10.0876 186 10z"/>
<path style="fill:#491849; stroke:none;" d="M181.667 11.3333C181.222 11.7779 182.278 11.7221 182.333 11.6667C182.778 11.2224 181.722 11.2777 181.667 11.3333z"/>
<path style="fill:#8c278f; stroke:none;" d="M187 14C181.096 12.7208 168.202 13.3443 166 20C154.453 20.743 144.055 29.5265 136.651 37.7006C129.815 45.2483 122.635 52.8722 118.325 62.2855C115.184 69.1453 114.786 76.8675 112.487 83.8264C111.672 86.2931 109.503 87.9129 108.549 90.3001C106.839 94.5747 106.935 99.6021 105.495 104C102.035 114.567 96.7544 124.285 93.706 135.001C91.5657 142.524 86.8441 148.86 84.5571 156.039C82.3474 162.976 82.9844 172.777 76 177C73.8492 191.36 66.1814 205.425 61.1806 219C58.7689 225.547 55.9067 232.32 53.912 239C51.966 245.517 50.9437 252.781 48.0995 258.961C42.3032 271.555 38.4294 283.875 34.186 297C32.2163 303.092 29.0597 307.399 29 314L26 314C24.8728 322.911 21.0694 329.707 17.9645 338C16.2395 342.607 16.2974 347.383 14.7677 352C12.3588 359.27 8.14478 365.72 6 373L71 373C74.1171 363.032 78.9141 353.739 82.0887 343.83C92.3748 311.724 104.326 280.433 116.54 249C118.556 243.813 119.523 238.213 121.598 233.09C124.311 226.391 127.751 219.806 130.19 213C135.962 196.896 140.225 179.949 146.473 164C147.585 161.161 149.602 158.811 150.773 156C154.786 146.367 157.149 135.812 160.915 126C163.628 118.933 167.24 112.432 169 105L167 106C167.572 103.623 167.89 101.442 168 99L545 99C543.221 108.044 538.265 114.642 535.066 123.001C530.933 133.798 528.215 145.235 523.961 155.91C521.736 161.492 518.722 166.614 516.383 172.09C509.323 188.626 505.315 206.232 497.24 222.285C495.395 225.954 494.352 230.263 492.034 233.675C489.608 237.247 485.282 240.016 482.025 242.801C476.922 247.164 472.109 251.755 465.91 254.598C462.76 256.043 459.378 255.833 456.09 256.704C444.059 259.893 432.593 262 420 262C420.696 266.902 423.582 273.085 429 273C434.923 290.337 448.585 305.94 458.669 321C462.535 326.773 468.722 330.968 470 338C473.639 340.065 474.693 343.604 477.351 346.71C480.752 350.682 484.69 353.918 488 358C493.288 353.748 499.428 351.722 504.755 347.985C515.199 340.659 524.095 329.175 528.258 317C529.828 312.407 532.195 308.903 531 304C536.677 299.152 538.898 287.966 541.089 280.999C544.222 271.036 547.247 260.787 550.763 251.011C551.933 247.757 554.284 245.134 555.641 241.961C558.048 236.334 558.875 230.081 559 224L562 224L562 218L565 218C566 211.327 568.148 203.505 571.135 197.425C572.913 193.806 575.445 190.864 576.691 186.961C578.238 182.116 578.755 176.827 580.553 172.09C583.372 164.662 587.033 157.583 589.617 150C590.841 146.407 590.839 142.555 592.133 139C593.694 134.709 596.737 131.199 598.323 126.91C601.04 119.565 602.214 111.246 605.21 104.17C606.69 100.673 609.175 97.6714 610.312 94C611.411 90.4544 610.87 86.6617 611.975 83.0895C613.615 77.7863 617.173 73.6943 619.587 68.8302C622.392 63.1778 625.315 55.1519 626.826 49C628.274 43.1092 626.971 38.6981 626.428 32.9105C625.914 27.4292 626.239 21.5623 626 16L310 16L234 16C229.025 15.9978 224.78 14.3982 219.961 14.054C215.507 13.736 210.704 15.1705 208 11C201.77 12.4967 191.424 8.74115 187 14z"/>
<path style="fill:#602055; stroke:none;" d="M178.667 12.3333C178.222 12.7779 179.278 12.7221 179.333 12.6667C179.778 12.2224 178.722 12.2777 178.667 12.3333z"/>
<path style="fill:#400040; stroke:none;" d="M640.333 12.6667C640.278 12.7223 640.222 13.7778 640.667 13.3333C640.722 13.278 640.778 12.222 640.333 12.6667z"/>
<path style="fill:#550b4a; stroke:none;" d="M175 13C176.248 13.6848 176.549 13.7488 178 14C176.752 13.3152 176.452 13.2512 175 13z"/>
<path style="fill:#8a2791; stroke:none;" d="M224 13C224.797 16.7201 227.61 16 231 16L247 16L319 16L626 16C626.107 21.1735 627.226 24.6601 630 29C633.752 25.3409 635.758 19.1985 636 14L356 14L269 14C254.66 14 237.975 16.3273 224 13z"/>
<path style="fill:#511b51; stroke:none;" d="M172.667 14.3333C172.222 14.7779 173.278 14.7221 173.333 14.6667C173.778 14.2224 172.722 14.2777 172.667 14.3333z"/>
<path style="fill:#400040; stroke:none;" d="M639.333 14.6667C639.278 14.7224 639.222 15.7778 639.667 15.3333C639.722 15.278 639.778 14.2221 639.333 14.6667z"/>
<path style="fill:#5b1b52; stroke:none;" d="M170.667 15.3333C170.222 15.7778 171.278 15.7222 171.333 15.6667C171.778 15.2224 170.722 15.2777 170.667 15.3333z"/>
<path style="fill:#551849; stroke:none;" d="M164.667 17.3333C164.222 17.7779 165.278 17.7221 165.333 17.6667C165.778 17.2224 164.722 17.2776 164.667 17.3333z"/>
<path style="fill:#4a154a; stroke:none;" d="M162.667 18.3333C162.222 18.7779 163.278 18.7221 163.333 18.6667C163.778 18.2224 162.722 18.2777 162.667 18.3333z"/>
<path style="fill:#772f77; stroke:none;" d="M157 21C160.226 21.7953 163.879 20.5587 166 18C162.82 18.6833 159.971 19.6784 157 21z"/>
<path style="fill:#510c51; stroke:none;" d="M637.333 18.6667C637.278 18.7224 637.222 19.7778 637.667 19.3333C637.722 19.2779 637.778 18.2222 637.333 18.6667z"/>
<path style="fill:#491249; stroke:none;" d="M636.333 21.6667C636.278 21.7224 636.222 22.7778 636.667 22.3333C636.722 22.2779 636.778 21.2222 636.333 21.6667z"/>
<path style="fill:#713271; stroke:none;" d="M150 25C152.837 25.675 154.522 24.5052 157 23C154.31 22.5946 152.444 23.7749 150 25z"/>
<path style="fill:#722e6c; stroke:none;" d="M634 24L633 32C634.62 29.295 635.157 26.9664 634 24z"/>
<path style="fill:#490c3d; stroke:none;" d="M635 24L635 27C635.696 25.4463 635.696 25.5537 635 24z"/>
<path style="fill:#631e5f; stroke:none;" d="M143 31C144.58 30.3164 144.777 30.1953 146 29C144.42 29.6836 144.223 29.8048 143 31z"/>
<path style="fill:#391c39; stroke:none;" d="M634 29L635 30L634 29z"/>
<path style="fill:#660033; stroke:none;" d="M140 32L141 33L140 32z"/>
<path style="fill:#722e72; stroke:none;" d="M131 43C135.218 40.5722 138.293 37.0117 141 33C136.424 35.1341 133.134 38.424 131 43z"/>
<path style="fill:#240024; stroke:none;" d="M632.333 33.6667C632.278 33.7223 632.222 34.7779 632.667 34.3333C632.722 34.2779 632.778 33.2222 632.333 33.6667z"/>
<path style="fill:#47154e; stroke:none;" d="M631 35L630 40C631.318 38.0739 631.651 37.2342 631 35z"/>
<path style="fill:#77236f; stroke:none;" d="M629 38L628 42C629.656 40.5957 629.751 40.0464 629 38z"/>
<path style="fill:#5a1952; stroke:none;" d="M628 42L628 45C628.696 43.4463 628.696 43.5537 628 42z"/>
<path style="fill:#792b77; stroke:none;" d="M130 43C128.651 44.7677 127.878 45.9825 127 48C129.015 46.3557 130.098 45.5872 130 43z"/>
<path style="fill:#64175d; stroke:none;" d="M627 45L627 49C627.71 47.2404 627.71 46.7595 627 45z"/>
<path style="fill:#732f6f; stroke:none;" d="M125 49C123.739 51.0098 122.81 52.7779 122 55C124.511 53.4214 125.698 51.9704 125 49z"/>
<path style="fill:#390039; stroke:none;" d="M626 51L627 52L626 51z"/>
<path style="fill:#371237; stroke:none;" d="M625.333 52.6667C625.278 52.7224 625.222 53.7777 625.667 53.3333C625.722 53.278 625.778 52.2221 625.333 52.6667z"/>
<path style="fill:#400040; stroke:none;" d="M121 55L122 56L121 55z"/>
<path style="fill:#2a002a; stroke:none;" d="M624.333 55.6667C624.278 55.7223 624.222 56.7779 624.667 56.3333C624.722 56.2779 624.778 55.2222 624.333 55.6667z"/>
<path style="fill:#672967; stroke:none;" d="M121 56C120.014 57.4786 120 57.2031 120 59C121.289 57.5574 121.401 57.7663 121 56z"/>
<path style="fill:#491249; stroke:none;" d="M623.333 57.6667C623.278 57.7224 623.222 58.7778 623.667 58.3333C623.722 58.278 623.778 57.2221 623.333 57.6667z"/>
<path style="fill:#5e225e; stroke:none;" d="M119.333 59.6667C119.278 59.7223 119.222 60.7777 119.667 60.3333C119.722 60.2779 119.778 59.2222 119.333 59.6667z"/>
<path style="fill:#551c55; stroke:none;" d="M622.333 59.6667C622.278 59.7224 622.222 60.7778 622.667 60.3333C622.722 60.2779 622.778 59.2222 622.333 59.6667z"/>
<path style="fill:#6a1f5d; stroke:none;" d="M621 61L621 64C621.696 62.4463 621.696 62.5537 621 61z"/>
<path style="fill:#451445; stroke:none;" d="M117.333 63.6667C117.278 63.7223 117.222 64.7777 117.667 64.3333C117.722 64.2779 117.778 63.2221 117.333 63.6667z"/>
<path style="fill:#3b143b; stroke:none;" d="M116 65L116 68C116.696 66.4463 116.696 66.5537 116 65z"/>
<path style="fill:#550000; stroke:none;" d="M621 65L622 66L621 65z"/>
<path style="fill:#400040; stroke:none;" d="M620.333 67.6667C620.278 67.7224 620.222 68.7778 620.667 68.3333C620.722 68.278 620.778 67.222 620.333 67.6667z"/>
<path style="fill:#551f55; stroke:none;" d="M115.333 69.6667C115.278 69.7223 115.222 70.7778 115.667 70.3333C115.722 70.2779 115.778 69.2222 115.333 69.6667z"/>
<path style="fill:#390039; stroke:none;" d="M619.333 69.6667C619.278 69.7223 619.222 70.7779 619.667 70.3333C619.722 70.2779 619.778 69.2222 619.333 69.6667z"/>
<path style="fill:#6e2d69; stroke:none;" d="M115 71C114.014 72.4785 114 72.2032 114 74C115.766 73.0214 115.955 72.7782 115 71z"/>
<path style="fill:#822e83; stroke:none;" d="M617 71C614.126 77.4287 611.149 82.8114 611 90C614 85.8043 618.784 76.0232 617 71z"/>
<path style="fill:#4e143b; stroke:none;" d="M618.333 71.6667C618.278 71.7224 618.222 72.7778 618.667 72.3333C618.722 72.2779 618.778 71.2222 618.333 71.6667z"/>
<path style="fill:#602060; stroke:none;" d="M113.333 74.6667C113.278 74.7223 113.222 75.7777 113.667 75.3333C113.722 75.2779 113.778 74.2221 113.333 74.6667z"/>
<path style="fill:#601c5a; stroke:none;" d="M112.333 77.6667C112.278 77.7223 112.222 78.7778 112.667 78.3333C112.722 78.2779 112.778 77.2222 112.333 77.6667z"/>
<path style="fill:#5d1a4c; stroke:none;" d="M615 78L615 81C615.696 79.4463 615.696 79.5537 615 78z"/>
<path style="fill:#460c46; stroke:none;" d="M111.333 79.6667C111.278 79.7223 111.222 80.7777 111.667 80.3333C111.722 80.2779 111.778 79.2221 111.333 79.6667z"/>
<path style="fill:#752870; stroke:none;" d="M112 79C110.58 82.2861 109.69 85.4916 109 89C112.305 86.2022 113.733 83.162 112 79z"/>
<path style="fill:#550000; stroke:none;" d="M110 81L111 82L110 81z"/>
<path style="fill:#400040; stroke:none;" d="M614 82L614 85C614.696 83.4463 614.696 83.5537 614 82z"/>
<path style="fill:#4e144e; stroke:none;" d="M109.333 85.6667C109.278 85.7223 109.222 86.7777 109.667 86.3333C109.722 86.2778 109.778 85.2222 109.333 85.6667z"/>
<path style="fill:#460c46; stroke:none;" d="M613 86L614 87L613 86z"/>
<path style="fill:#5a1e4b; stroke:none;" d="M612.333 87.6667C612.278 87.7224 612.222 88.7778 612.667 88.3333C612.722 88.278 612.778 87.2221 612.333 87.6667z"/>
<path style="fill:#492449; stroke:none;" d="M611.333 90.6667C611.278 90.7224 611.222 91.7777 611.667 91.3333C611.722 91.278 611.778 90.2221 611.333 90.6667z"/>
<path style="fill:#5c1f5c; stroke:none;" d="M107.333 91.6667C107.278 91.7223 107.222 92.7777 107.667 92.3333C107.722 92.2779 107.778 91.2221 107.333 91.6667z"/>
<path style="fill:#4e164e; stroke:none;" d="M106.333 93.6667C106.278 93.7223 106.222 94.7777 106.667 94.3333C106.722 94.2779 106.778 93.2221 106.333 93.6667z"/>
<path style="fill:#892a83; stroke:none;" d="M107 93C103.121 104.485 96.6227 115.959 95 128C97.1712 126.203 97.9664 123.519 99.2971 120.999C102.852 114.268 109.31 100.606 107 93z"/>
<path style="fill:#602060; stroke:none;" d="M105.333 96.6667C105.278 96.7223 105.222 97.7777 105.667 97.3333C105.722 97.2779 105.778 96.2221 105.333 96.6667z"/>
<path style="fill:#2a002a; stroke:none;" d="M609.333 96.6667C609.278 96.7224 609.222 97.7778 609.667 97.3333C609.722 97.2779 609.778 96.2222 609.333 96.6667z"/>
<path style="fill:#4e1a48; stroke:none;" d="M608 97L608 100C608.696 98.4463 608.696 98.5537 608 97z"/>
<path style="fill:#401040; stroke:none;" d="M104.333 98.6667C104.278 98.7223 104.222 99.7778 104.667 99.3333C104.722 99.2779 104.778 98.2221 104.333 98.6667z"/>
<path style="fill:#883087; stroke:none;" d="M168 99L167 106C168.627 104.253 169.956 101.587 172.224 100.603C178.415 97.9162 189.3 100 196 100L264 100L545 100C541.301 98.4479 536.983 99 533 99L512 99L435 99L168 99z"/>
<path style="fill:#551355; stroke:none;" d="M169 105C171.596 102.43 173.305 101.282 177 101C172.768 99.2381 169.971 100.549 169 105z"/>
<path style="fill:#4d1a4d; stroke:none;" d="M177 100C180.699 101.552 185.017 101 189 101L210 101L284 101L543 101C539.301 99.4479 534.983 100 531 100L510 100L436 100L177 100z"/>
<path style="fill:#6a2361; stroke:none;" d="M543 100L543 103C544.195 101.777 544.316 101.58 545 100L543 100z"/>
<path style="fill:#551155; stroke:none;" d="M607.333 100.667C607.278 100.722 607.222 101.778 607.667 101.333C607.722 101.278 607.778 100.222 607.333 100.667z"/>
<path style="fill:#662659; stroke:none;" d="M103 101L103 104C103.696 102.446 103.696 102.554 103 101z"/>
<path style="fill:#7f2e75; stroke:none;" d="M605 102C604.499 104.686 604.117 107.27 604 110C605.825 107.328 606.232 105.023 605 102z"/>
<path style="fill:#5b165b; stroke:none;" d="M606 102L606 106C606.71 104.24 606.71 103.76 606 102z"/>
<path style="fill:#3c0f3c; stroke:none;" d="M542 103L542 106C542.696 104.446 542.696 104.554 542 103z"/>
<path style="fill:#7c2875; stroke:none;" d="M543 103C541.523 107.403 539.469 111.324 539 116C541.533 112.618 544.369 107.17 543 103z"/>
<path style="fill:#501050; stroke:none;" d="M101.333 107.667C101.278 107.722 101.222 108.778 101.667 108.333C101.722 108.278 101.778 107.222 101.333 107.667z"/>
<path style="fill:#400040; stroke:none;" d="M168.333 107.667C168.278 107.722 168.222 108.778 168.667 108.333C168.722 108.278 168.778 107.222 168.333 107.667z"/>
<path style="fill:#52104a; stroke:none;" d="M100.333 110.667C100.278 110.722 100.222 111.778 100.667 111.333C100.722 111.278 100.778 110.222 100.333 110.667z"/>
<path style="fill:#330033; stroke:none;" d="M167.333 110.667C167.278 110.722 167.222 111.778 167.667 111.333C167.722 111.278 167.778 110.222 167.333 110.667z"/>
<path style="fill:#2a002a; stroke:none;" d="M604.333 110.667C604.278 110.722 604.222 111.778 604.667 111.333C604.722 111.278 604.778 110.222 604.333 110.667z"/>
<path style="fill:#370037; stroke:none;" d="M99.3333 112.667C99.2777 112.722 99.2223 113.778 99.6667 113.333C99.7222 113.278 99.7778 112.222 99.3333 112.667z"/>
<path style="fill:#491849; stroke:none;" d="M166 112L166 115C166.696 113.446 166.696 113.554 166 112z"/>
<path style="fill:#470e39; stroke:none;" d="M603 112L603 115C603.696 113.446 603.696 113.554 603 112z"/>
<path style="fill:#582758; stroke:none;" d="M538.333 114.667C538.278 114.722 538.222 115.778 538.667 115.333C538.722 115.278 538.778 114.222 538.333 114.667z"/>
<path style="fill:#550055; stroke:none;" d="M602.333 115.667C602.278 115.722 602.222 116.778 602.667 116.333C602.722 116.278 602.778 115.222 602.333 115.667z"/>
<path style="fill:#602060; stroke:none;" d="M537.333 116.667C537.278 116.722 537.222 117.778 537.667 117.333C537.722 117.278 537.778 116.222 537.333 116.667z"/>
<path style="fill:#492449; stroke:none;" d="M601.333 117.667C601.278 117.722 601.222 118.778 601.667 118.333C601.722 118.278 601.778 117.222 601.333 117.667z"/>
<path style="fill:#442244; stroke:none;" d="M164 118L165 119L164 118z"/>
<path style="fill:#5d175d; stroke:none;" d="M536.333 118.667C536.278 118.722 536.222 119.778 536.667 119.333C536.722 119.278 536.778 118.222 536.333 118.667z"/>
<path style="fill:#6f2e69; stroke:none;" d="M163 119L163 122C163.696 120.446 163.696 120.554 163 119z"/>
<path style="fill:#551c55; stroke:none;" d="M600.333 119.667C600.278 119.722 600.222 120.778 600.667 120.333C600.722 120.278 600.778 119.222 600.333 119.667z"/>
<path style="fill:#531553; stroke:none;" d="M162 122L161 128C162.305 125.819 162.736 124.433 162 122z"/>
<path style="fill:#401040; stroke:none;" d="M95.3333 123.667C95.2777 123.722 95.2223 124.778 95.6667 124.333C95.7221 124.278 95.7778 123.222 95.3333 123.667z"/>
<path style="fill:#000055; stroke:none;" d="M534 124L535 125L534 124z"/>
<path style="fill:#2a002a; stroke:none;" d="M599.333 124.667C599.278 124.722 599.222 125.778 599.667 125.333C599.722 125.278 599.778 124.222 599.333 124.667z"/>
<path style="fill:#6d2b62; stroke:none;" d="M598.333 125.667C598.278 125.722 598.222 126.778 598.667 126.333C598.722 126.278 598.778 125.222 598.333 125.667z"/>
<path style="fill:#370037; stroke:none;" d="M94.3333 126.667C94.2777 126.722 94.2223 127.778 94.6667 127.333C94.7221 127.278 94.7778 126.222 94.3333 126.667z"/>
<path style="fill:#6f2967; stroke:none;" d="M160.333 126.667C160.278 126.722 160.222 127.778 160.667 127.333C160.722 127.278 160.778 126.222 160.333 126.667z"/>
<path style="fill:#330033; stroke:none;" d="M598.333 127.667C598.278 127.722 598.222 128.778 598.667 128.333C598.722 128.278 598.778 127.222 598.333 127.667z"/>
<path style="fill:#852b7a; stroke:none;" d="M94 128C92.0841 136.281 87.2603 143.586 86 152C91.2649 148.685 96.2969 133.899 94 128z"/>
<path style="fill:#402040; stroke:none;" d="M160.333 128.667C160.278 128.722 160.222 129.778 160.667 129.333C160.722 129.278 160.778 128.222 160.333 128.667z"/>
<path style="fill:#4e214e; stroke:none;" d="M93.3333 129.667C93.2779 129.722 93.2222 130.778 93.6667 130.333C93.7222 130.278 93.7777 129.222 93.3333 129.667z"/>
<path style="fill:#611861; stroke:none;" d="M159 130L159 133C159.696 131.446 159.696 131.554 159 130z"/>
<path style="fill:#52174b; stroke:none;" d="M532.333 130.667C532.278 130.722 532.222 131.778 532.667 131.333C532.722 131.278 532.778 130.222 532.333 130.667z"/>
<path style="fill:#80237a; stroke:none;" d="M596 130C593.801 134.732 591.466 138.705 591 144C594.02 140.644 597.255 134.526 596 130z"/>
<path style="fill:#592659; stroke:none;" d="M92.3333 132.667C92.2779 132.722 92.2222 133.778 92.6667 133.333C92.7223 133.278 92.7777 132.222 92.3333 132.667z"/>
<path style="fill:#551855; stroke:none;" d="M531.333 132.667C531.278 132.722 531.222 133.778 531.667 133.333C531.722 133.278 531.778 132.222 531.333 132.667z"/>
<path style="fill:#792d6b; stroke:none;" d="M158 133L157 137C158.303 135.332 158.553 135.008 158 133z"/>
<path style="fill:#460046; stroke:none;" d="M530.333 134.667C530.278 134.722 530.222 135.778 530.667 135.333C530.722 135.278 530.778 134.222 530.333 134.667z"/>
<path style="fill:#5d1a55; stroke:none;" d="M91.3333 135.667C91.2778 135.722 91.2222 136.778 91.6667 136.333C91.7222 136.278 91.7778 135.222 91.3333 135.667z"/>
<path style="fill:#551855; stroke:none;" d="M90 137L90 140C90.6961 138.446 90.6961 138.554 90 137z"/>
<path style="fill:#330033; stroke:none;" d="M157.333 137.667C157.278 137.722 157.222 138.778 157.667 138.333C157.722 138.278 157.778 137.222 157.333 137.667z"/>
<path style="fill:#390e39; stroke:none;" d="M156 139L156 142C156.696 140.446 156.696 140.554 156 139z"/>
<path style="fill:#400040; stroke:none;" d="M593.333 140.667C593.278 140.722 593.222 141.778 593.667 141.333C593.722 141.278 593.778 140.222 593.333 140.667z"/>
<path style="fill:#470039; stroke:none;" d="M88.3333 142.667C88.2778 142.722 88.2222 143.778 88.6667 143.333C88.7223 143.278 88.7777 142.222 88.3333 142.667z"/>
<path style="fill:#490049; stroke:none;" d="M155.333 142.667C155.278 142.722 155.222 143.778 155.667 143.333C155.722 143.278 155.778 142.222 155.333 142.667z"/>
<path style="fill:#551855; stroke:none;" d="M527.333 143.667C527.278 143.722 527.222 144.778 527.667 144.333C527.722 144.278 527.778 143.222 527.333 143.667z"/>
<path style="fill:#371237; stroke:none;" d="M592 143L593 144L592 143z"/>
<path style="fill:#5c1f5c; stroke:none;" d="M154 144C153.132 146.355 152.426 148.531 152 151C153.836 148.692 154.797 146.889 154 144z"/>
<path style="fill:#55134f; stroke:none;" d="M591 144L591 147C591.696 145.446 591.696 145.554 591 144z"/>
<path style="fill:#521952; stroke:none;" d="M590 147L590 150C590.696 148.446 590.696 148.554 590 147z"/>
<path style="fill:#521b52; stroke:none;" d="M525.333 148.667C525.278 148.722 525.222 149.778 525.667 149.333C525.722 149.278 525.778 148.222 525.333 148.667z"/>
<path style="fill:#591a4d; stroke:none;" d="M524.333 150.667C524.278 150.722 524.222 151.778 524.667 151.333C524.722 151.278 524.778 150.222 524.333 150.667z"/>
<path style="fill:#81347b; stroke:none;" d="M525 150C523.597 153.003 522.51 155.72 522 159C524.559 156.879 525.795 153.226 525 150z"/>
<path style="fill:#661a4d; stroke:none;" d="M589.333 150.667C589.278 150.722 589.222 151.778 589.667 151.333C589.722 151.278 589.778 150.222 589.333 150.667z"/>
<path style="fill:#552255; stroke:none;" d="M85.3333 151.667C85.2778 151.722 85.2222 152.778 85.6667 152.333C85.7223 152.278 85.7778 151.222 85.3333 151.667z"/>
<path style="fill:#330033; stroke:none;" d="M152.333 151.667C152.278 151.722 152.222 152.778 152.667 152.333C152.722 152.278 152.778 151.222 152.333 151.667z"/>
<path style="fill:#390039; stroke:none;" d="M588.333 153.667C588.278 153.722 588.222 154.778 588.667 154.333C588.722 154.278 588.778 153.222 588.333 153.667z"/>
<path style="fill:#5c1f5c; stroke:none;" d="M84.3333 154.667C84.2778 154.722 84.2222 155.778 84.6667 155.333C84.7223 155.278 84.7777 154.222 84.3333 154.667z"/>
<path style="fill:#330033; stroke:none;" d="M151.333 154.667C151.278 154.722 151.222 155.778 151.667 155.333C151.722 155.278 151.778 154.222 151.333 154.667z"/>
<path style="fill:#672462; stroke:none;" d="M587 154L587 157C587.696 155.446 587.696 155.554 587 154z"/>
<path style="fill:#491249; stroke:none;" d="M83.3333 156.667C83.2778 156.722 83.2222 157.778 83.6667 157.333C83.7223 157.278 83.7777 156.222 83.3333 156.667z"/>
<path style="fill:#88267d; stroke:none;" d="M83 158C81.1999 164.39 78.3902 170.541 77 177C81.65 173.59 84.9627 163.475 83 158z"/>
<path style="fill:#501040; stroke:none;" d="M149.333 158.667C149.278 158.722 149.222 159.778 149.667 159.333C149.722 159.278 149.778 158.222 149.333 158.667z"/>
<path style="fill:#4e1a55; stroke:none;" d="M521.333 158.667C521.278 158.722 521.222 159.778 521.667 159.333C521.722 159.278 521.778 158.222 521.333 158.667z"/>
<path style="fill:#401540; stroke:none;" d="M586 158L586 161C586.696 159.446 586.696 159.554 586 158z"/>
<path style="fill:#5c1f52; stroke:none;" d="M148 160L148 163C148.696 161.446 148.696 161.554 148 160z"/>
<path style="fill:#441144; stroke:none;" d="M520 160L520 163C520.696 161.446 520.696 161.554 520 160z"/>
<path style="fill:#7c296f; stroke:none;" d="M147 161C145.883 164.298 145.276 167.528 145 171C146.933 167.923 148.245 164.51 147 161z"/>
<path style="fill:#551144; stroke:none;" d="M585.333 161.667C585.278 161.722 585.222 162.778 585.667 162.333C585.722 162.278 585.778 161.222 585.333 161.667z"/>
<path style="fill:#552266; stroke:none;" d="M81.3333 162.667C81.2778 162.722 81.2222 163.778 81.6667 163.333C81.7223 163.278 81.7778 162.222 81.3333 162.667z"/>
<path style="fill:#7b2878; stroke:none;" d="M519 163L518 169C519.884 167.02 520.469 165.69 521 163L519 163z"/>
<path style="fill:#6d246d; stroke:none;" d="M267 164C271.215 165.769 276.464 165 281 165L308 165L402 165C397.785 163.231 392.536 164 388 164L361 164L267 164z"/>
<path style="fill:#402040; stroke:none;" d="M584.333 164.667C584.278 164.722 584.222 165.778 584.667 165.333C584.722 165.278 584.778 164.222 584.333 164.667z"/>
<path style="fill:#552266; stroke:none;" d="M80 165L80 168C80.6961 166.446 80.6961 166.554 80 165z"/>
<path style="fill:#4d1a4d; stroke:none;" d="M265 165L264 170C265.318 168.074 265.651 167.234 265 165z"/>
<path style="fill:#89278c; stroke:none;" d="M266 165C264.487 170.488 261.517 175.257 261 181C264.288 177.261 267.256 171.935 268 167C269.195 168.223 269.316 168.42 270 170L363 170L383 169.999C387.057 169.978 390.521 170.205 392 166L399 166L399 173L401 173L402 165L266 165z"/>
<path style="fill:#330033; stroke:none;" d="M402.333 165.667C402.278 165.722 402.222 166.778 402.667 166.333C402.722 166.278 402.778 165.222 402.333 165.667z"/>
<path style="fill:#75246d; stroke:none;" d="M583 165L583 169C583.71 167.241 583.71 166.759 583 165z"/>
<path style="fill:#8c278f; stroke:none;" d="M392 166C390.301 170.061 387.092 169.991 383 170L363 170L300 170L281 170C278.268 170 274.719 170.589 272.111 169.667C270.571 169.122 269.445 167.706 268 167C265.661 175.697 260.453 184.379 257.309 193.004C256.355 195.619 253.316 200.671 255.121 203.397C257.014 206.255 264.09 205 267 205L302 205L363 205L379 205C381.392 204.995 384.361 205.359 386.467 203.972C389.427 202.022 390.768 197.149 391.98 194C395.55 184.724 398.993 176.069 399 166L392 166z"/>
<path style="fill:#551849; stroke:none;" d="M79.3333 168.667C79.2778 168.722 79.2222 169.778 79.6667 169.333C79.7223 169.278 79.7777 168.222 79.3333 168.667z"/>
<path style="fill:#550e47; stroke:none;" d="M401 168L401 171C401.696 169.446 401.696 169.554 401 168z"/>
<path style="fill:#400040; stroke:none;" d="M146 169L147 170L146 169z"/>
<path style="fill:#7a2875; stroke:none;" d="M581 169L579 175C581.074 172.983 581.912 171.814 581 169z"/>
<path style="fill:#602055; stroke:none;" d="M582.333 169.667C582.278 169.722 582.222 170.778 582.667 170.333C582.722 170.278 582.778 169.222 582.333 169.667z"/>
<path style="fill:#61245c; stroke:none;" d="M144 171L143 177C144.455 175.079 145.203 173.289 146 171L144 171z"/>
<path style="fill:#552255; stroke:none;" d="M263.333 171.667C263.278 171.722 263.222 172.778 263.667 172.333C263.722 172.278 263.778 171.222 263.333 171.667z"/>
<path style="fill:#592659; stroke:none;" d="M77.3333 173.667C77.2778 173.722 77.2222 174.778 77.6667 174.333C77.7223 174.278 77.7777 173.222 77.3333 173.667z"/>
<path style="fill:#63235c; stroke:none;" d="M399 173L398 178C399.318 176.074 399.651 175.234 399 173z"/>
<path style="fill:#491249; stroke:none;" d="M515.333 173.667C515.278 173.722 515.222 174.778 515.667 174.333C515.722 174.278 515.778 173.222 515.333 173.667z"/>
<path style="fill:#46002e; stroke:none;" d="M581 173L582 174L581 173z"/>
<path style="fill:#490c49; stroke:none;" d="M580 174L580 177C580.696 175.446 580.696 175.554 580 174z"/>
<path style="fill:#491249; stroke:none;" d="M514.333 176.667C514.278 176.722 514.222 177.778 514.667 177.333C514.722 177.278 514.778 176.222 514.333 176.667z"/>
<path style="fill:#6a1555; stroke:none;" d="M579.333 177.667C579.278 177.722 579.222 178.778 579.667 178.333C579.722 178.278 579.778 177.222 579.333 177.667z"/>
<path style="fill:#402040; stroke:none;" d="M142 178L143 179L142 178z"/>
<path style="fill:#501050; stroke:none;" d="M397 178L397 181C397.696 179.446 397.696 179.554 397 178z"/>
<path style="fill:#5c1a5c; stroke:none;" d="M75.3333 179.667C75.2778 179.722 75.2222 180.778 75.6667 180.333C75.7223 180.278 75.7778 179.222 75.3333 179.667z"/>
<path style="fill:#601850; stroke:none;" d="M260.333 179.667C260.278 179.722 260.222 180.778 260.667 180.333C260.722 180.278 260.778 179.222 260.333 179.667z"/>
<path style="fill:#641f5d; stroke:none;" d="M578 179L578 182C578.696 180.446 578.696 180.554 578 179z"/>
<path style="fill:#5a1e4b; stroke:none;" d="M74 181L74 184C74.6961 182.446 74.6961 182.554 74 181z"/>
<path style="fill:#79296f; stroke:none;" d="M140 181L139 185C140.303 183.332 140.553 183.008 140 181z"/>
<path style="fill:#390039; stroke:none;" d="M141 181L142 182L141 181z"/>
<path style="fill:#800000; stroke:none;" d="M259 181L260 182L259 181z"/>
<path style="fill:#7d297b; stroke:none;" d="M260 181C258.515 186.439 256.492 191.834 254.234 197C253.33 199.067 251.531 202.2 253.071 204.397C254.749 206.79 259.516 205.999 262 206L286 206L387 206C378.882 202.593 365.797 205 357 205L289 205L265 205C262.369 204.999 257.68 205.753 255.789 203.397C254.097 201.29 255.798 198.125 256.576 196C258.263 191.391 261.972 185.823 260 181z"/>
<path style="fill:#5c1b57; stroke:none;" d="M259.333 182.667C259.278 182.722 259.222 183.778 259.667 183.333C259.722 183.278 259.778 182.222 259.333 182.667z"/>
<path style="fill:#3b143b; stroke:none;" d="M73.3333 184.667C73.2778 184.722 73.2222 185.778 73.6667 185.333C73.7223 185.278 73.7777 184.222 73.3333 184.667z"/>
<path style="fill:#4b0f3c; stroke:none;" d="M258.333 184.667C258.278 184.722 258.222 185.778 258.667 185.333C258.722 185.278 258.778 184.222 258.333 184.667z"/>
<path style="fill:#59164e; stroke:none;" d="M395 184C394.014 185.479 394 185.203 394 187C395.289 185.557 395.401 185.766 395 184z"/>
<path style="fill:#490024; stroke:none;" d="M577.333 184.667C577.278 184.722 577.222 185.778 577.667 185.333C577.722 185.278 577.778 184.222 577.333 184.667z"/>
<path style="fill:#4b0f3c; stroke:none;" d="M139.333 185.667C139.278 185.722 139.222 186.778 139.667 186.333C139.722 186.278 139.778 185.222 139.333 185.667z"/>
<path style="fill:#5c1a55; stroke:none;" d="M511.333 185.667C511.278 185.722 511.222 186.778 511.667 186.333C511.722 186.278 511.778 185.222 511.333 185.667z"/>
<path style="fill:#4e164e; stroke:none;" d="M72.3333 187.667C72.2778 187.722 72.2222 188.778 72.6667 188.333C72.7223 188.278 72.7777 187.222 72.3333 187.667z"/>
<path style="fill:#491249; stroke:none;" d="M257.333 187.667C257.278 187.722 257.222 188.778 257.667 188.333C257.722 188.278 257.778 187.222 257.333 187.667z"/>
<path style="fill:#800000; stroke:none;" d="M394 187L395 188L394 187z"/>
<path style="fill:#621d58; stroke:none;" d="M510.333 187.667C510.278 187.722 510.222 188.778 510.667 188.333C510.722 188.278 510.778 187.222 510.333 187.667z"/>
<path style="fill:#400040; stroke:none;" d="M576.333 187.667C576.278 187.722 576.222 188.778 576.667 188.333C576.722 188.278 576.778 187.222 576.333 187.667z"/>
<path style="fill:#441155; stroke:none;" d="M138 188L138 191C138.696 189.446 138.696 189.554 138 188z"/>
<path style="fill:#5a1952; stroke:none;" d="M393 188L393 191C393.696 189.446 393.696 189.554 393 188z"/>
<path style="fill:#491249; stroke:none;" d="M509.333 189.667C509.278 189.722 509.222 190.778 509.667 190.333C509.722 190.278 509.778 189.222 509.333 189.667z"/>
<path style="fill:#592659; stroke:none;" d="M256.333 190.667C256.278 190.722 256.222 191.778 256.667 191.333C256.722 191.278 256.778 190.222 256.333 190.667z"/>
<path style="fill:#551144; stroke:none;" d="M137.333 191.667C137.278 191.722 137.222 192.778 137.667 192.333C137.722 192.278 137.778 191.222 137.333 191.667z"/>
<path style="fill:#461746; stroke:none;" d="M574.333 191.667C574.278 191.722 574.222 192.778 574.667 192.333C574.722 192.278 574.778 191.222 574.333 191.667z"/>
<path style="fill:#400040; stroke:none;" d="M508 192L509 193L508 192z"/>
<path style="fill:#752c6d; stroke:none;" d="M70 193L68 200C70.302 197.749 71.1686 196.103 70 193z"/>
<path style="fill:#5e2857; stroke:none;" d="M255.333 193.667C255.278 193.722 255.222 194.778 255.667 194.333C255.722 194.278 255.778 193.222 255.333 193.667z"/>
<path style="fill:#550055; stroke:none;" d="M392.333 193.667C392.278 193.722 392.222 194.778 392.667 194.333C392.722 194.278 392.778 193.222 392.333 193.667z"/>
<path style="fill:#5b245b; stroke:none;" d="M573.333 193.667C573.278 193.722 573.222 194.778 573.667 194.333C573.722 194.278 573.778 193.222 573.333 193.667z"/>
<path style="fill:#4b1e4b; stroke:none;" d="M507.333 194.667C507.278 194.722 507.222 195.778 507.667 195.333C507.722 195.278 507.778 194.222 507.333 194.667z"/>
<path style="fill:#611855; stroke:none;" d="M254.333 195.667C254.278 195.722 254.222 196.778 254.667 196.333C254.722 196.278 254.778 195.222 254.333 195.667z"/>
<path style="fill:#400040; stroke:none;" d="M391.333 195.667C391.278 195.722 391.222 196.778 391.667 196.333C391.722 196.278 391.778 195.222 391.333 195.667z"/>
<path style="fill:#802d7e; stroke:none;" d="M572 195C569.913 198.772 568.439 202.694 568 207C570.455 203.622 573.373 199.183 572 195z"/>
<path style="fill:#612561; stroke:none;" d="M390.333 196.667C390.278 196.722 390.222 197.778 390.667 197.333C390.722 197.278 390.778 196.222 390.333 196.667z"/>
<path style="fill:#662966; stroke:none;" d="M507 196L506 200C507.303 198.332 507.553 198.008 507 196z"/>
<path style="fill:#490049; stroke:none;" d="M135 198L136 199L135 198z"/>
<path style="fill:#4b0f4b; stroke:none;" d="M253 198L254 199L253 198z"/>
<path style="fill:#400040; stroke:none;" d="M390.333 198.667C390.278 198.722 390.222 199.778 390.667 199.333C390.722 199.278 390.778 198.222 390.333 198.667z"/>
<path style="fill:#551c55; stroke:none;" d="M252.333 199.667C252.278 199.722 252.222 200.778 252.667 200.333C252.722 200.278 252.778 199.222 252.333 199.667z"/>
<path style="fill:#3d1447; stroke:none;" d="M67.3333 200.667C67.2778 200.722 67.2222 201.778 67.6667 201.333C67.7223 201.278 67.7777 200.222 67.3333 200.667z"/>
<path style="fill:#400040; stroke:none;" d="M134.333 200.667C134.278 200.722 134.222 201.778 134.667 201.333C134.722 201.278 134.778 200.222 134.333 200.667z"/>
<path style="fill:#330033; stroke:none;" d="M389.333 200.667C389.278 200.722 389.222 201.778 389.667 201.333C389.722 201.278 389.778 200.222 389.333 200.667z"/>
<path style="fill:#552255; stroke:none;" d="M505.333 200.667C505.278 200.722 505.222 201.778 505.667 201.333C505.722 201.278 505.778 200.222 505.333 200.667z"/>
<path style="fill:#2a002a; stroke:none;" d="M571.333 200.667C571.278 200.722 571.222 201.778 571.667 201.333C571.722 201.278 571.778 200.222 571.333 200.667z"/>
<path style="fill:#490024; stroke:none;" d="M133.333 202.667C133.278 202.722 133.222 203.778 133.667 203.333C133.722 203.278 133.778 202.222 133.333 202.667M251 202L252 203L251 202z"/>
<path style="fill:#662260; stroke:none;" d="M388 202L387 206C388.146 204.36 388.393 203.924 388 202z"/>
<path style="fill:#401040; stroke:none;" d="M66.3333 203.667C66.2778 203.722 66.2222 204.778 66.6667 204.333C66.7223 204.278 66.7777 203.222 66.3333 203.667z"/>
<path style="fill:#793966; stroke:none;" d="M251 203C251.406 205.092 251.217 205.02 253 206C252.309 204.612 252.015 204.139 251 203z"/>
<path style="fill:#581a61; stroke:none;" d="M504.333 203.667C504.278 203.722 504.222 204.778 504.667 204.333C504.722 204.278 504.778 203.222 504.333 203.667z"/>
<path style="fill:#490024; stroke:none;" d="M570.333 203.667C570.278 203.722 570.222 204.778 570.667 204.333C570.722 204.278 570.778 203.222 570.333 203.667z"/>
<path style="fill:#5e1b57; stroke:none;" d="M132 204L131 209C132.318 207.074 132.651 206.234 132 204z"/>
<path style="fill:#631f58; stroke:none;" d="M569 204L569 207C569.696 205.446 569.696 205.554 569 204z"/>
<path style="fill:#592159; stroke:none;" d="M503.333 205.667C503.278 205.722 503.222 206.778 503.667 206.333C503.722 206.278 503.778 205.222 503.333 205.667z"/>
<path style="fill:#400b40; stroke:none;" d="M252 206C256.215 207.769 261.465 207 266 207L293 207L387 207C382.785 205.231 377.536 206 373 206L346 206L252 206z"/>
<path style="fill:#692d5a; stroke:none;" d="M502.333 207.667C502.278 207.722 502.222 208.778 502.667 208.333C502.722 208.278 502.778 207.222 502.333 207.667z"/>
<path style="fill:#51235d; stroke:none;" d="M568.333 207.667C568.278 207.722 568.222 208.778 568.667 208.333C568.722 208.278 568.778 207.222 568.333 207.667z"/>
<path style="fill:#80287b; stroke:none;" d="M502 209L500 215C502.4 213.31 502.976 211.796 502 209z"/>
<path style="fill:#712c6e; stroke:none;" d="M567 209L566 214C567.318 212.074 567.651 211.234 567 209z"/>
<path style="fill:#602060; stroke:none;" d="M501.333 210.667C501.278 210.722 501.222 211.778 501.667 211.333C501.722 211.278 501.778 210.222 501.333 210.667z"/>
<path style="fill:#581d4e; stroke:none;" d="M63.3333 212.667C63.2777 212.722 63.2222 213.778 63.6667 213.333C63.7222 213.278 63.7778 212.222 63.3333 212.667z"/>
<path style="fill:#4b0f3c; stroke:none;" d="M62 214L62 217C62.6961 215.446 62.6961 215.554 62 214z"/>
<path style="fill:#550055; stroke:none;" d="M129.333 214.667C129.278 214.722 129.222 215.778 129.667 215.333C129.722 215.278 129.778 214.222 129.333 214.667z"/>
<path style="fill:#661f61; stroke:none;" d="M565.333 214.667C565.278 214.722 565.222 215.778 565.667 215.333C565.722 215.278 565.778 214.222 565.333 214.667z"/>
<path style="fill:#441144; stroke:none;" d="M499 215L499 218C499.696 216.446 499.696 216.554 499 215z"/>
<path style="fill:#390039; stroke:none;" d="M128.333 216.667C128.278 216.722 128.222 217.778 128.667 217.333C128.722 217.278 128.778 216.222 128.333 216.667z"/>
<path style="fill:#490024; stroke:none;" d="M565.333 216.667C565.278 216.722 565.222 217.778 565.667 217.333C565.722 217.278 565.778 216.222 565.333 216.667z"/>
<path style="fill:#491849; stroke:none;" d="M127.333 218.667C127.278 218.722 127.222 219.778 127.667 219.333C127.722 219.278 127.778 218.222 127.333 218.667z"/>
<path style="fill:#742c6f; stroke:none;" d="M499 218C498.014 219.479 498 219.203 498 221C499.289 219.557 499.401 219.766 499 218z"/>
<path style="fill:#782a72; stroke:none;" d="M562 218L562 224C563.416 221.958 563.745 220.489 564 218L562 218z"/>
<path style="fill:#3e093e; stroke:none;" d="M564 218L564 221C564.696 219.446 564.696 219.554 564 218z"/>
<path style="fill:#400040; stroke:none;" d="M60 220L61 221L60 220z"/>
<path style="fill:#5b245b; stroke:none;" d="M125 221L125 225C126.081 223.542 126.436 222.752 127 221L125 221z"/>
<path style="fill:#550055; stroke:none;" d="M563.333 222.667C563.278 222.722 563.222 223.778 563.667 223.333C563.722 223.278 563.778 222.222 563.333 222.667z"/>
<path style="fill:#000080; stroke:none;" d="M59 223L60 224L59 223z"/>
<path style="fill:#400040; stroke:none;" d="M496 223L497 224L496 223z"/>
<path style="fill:#5f1d5f; stroke:none;" d="M59.3333 224.667C59.2778 224.722 59.2222 225.778 59.6667 225.333C59.7222 225.278 59.7778 224.222 59.3333 224.667z"/>
<path style="fill:#862b7b; stroke:none;" d="M559 224L558 234C560.577 231.076 561.434 227.828 562 224L559 224z"/>
<path style="fill:#461746; stroke:none;" d="M562.333 224.667C562.278 224.722 562.222 225.778 562.667 225.333C562.722 225.278 562.778 224.222 562.333 224.667z"/>
<path style="fill:#550000; stroke:none;" d="M125 225L126 226L125 225z"/>
<path style="fill:#4b0f4b; stroke:none;" d="M58 226L57 230C58.303 228.332 58.553 228.008 58 226z"/>
<path style="fill:#6f296f; stroke:none;" d="M495 226C494.014 227.478 494 227.203 494 229C495.289 227.557 495.401 227.766 495 226z"/>
<path style="fill:#2a002a; stroke:none;" d="M124.333 227.667C124.278 227.722 124.222 228.778 124.667 228.333C124.722 228.278 124.778 227.222 124.333 227.667z"/>
<path style="fill:#330033; stroke:none;" d="M561.333 227.667C561.278 227.722 561.222 228.778 561.667 228.333C561.722 228.278 561.778 227.222 561.333 227.667z"/>
<path style="fill:#471447; stroke:none;" d="M493.333 228.667C493.278 228.722 493.222 229.778 493.667 229.333C493.722 229.278 493.778 228.222 493.333 228.667z"/>
<path style="fill:#792671; stroke:none;" d="M122 230L121 236C122.495 233.815 122.889 232.508 122 230z"/>
<path style="fill:#400040; stroke:none;" d="M123.333 230.667C123.278 230.722 123.222 231.778 123.667 231.333C123.722 231.278 123.778 230.222 123.333 230.667z"/>
<path style="fill:#490c49; stroke:none;" d="M492.333 230.667C492.278 230.722 492.222 231.778 492.667 231.333C492.722 231.278 492.778 230.222 492.333 230.667z"/>
<path style="fill:#2a002a; stroke:none;" d="M560.333 230.667C560.278 230.722 560.222 231.778 560.667 231.333C560.722 231.278 560.778 230.222 560.333 230.667z"/>
<path style="fill:#5c145c; stroke:none;" d="M56.3333 231.667C56.2778 231.722 56.2222 232.778 56.6667 232.333C56.7222 232.278 56.7778 231.222 56.3333 231.667z"/>
<path style="fill:#521452; stroke:none;" d="M491.333 232.667C491.278 232.722 491.222 233.778 491.667 233.333C491.722 233.278 491.778 232.222 491.333 232.667z"/>
<path style="fill:#7e2d73; stroke:none;" d="M492 232L489 237C491.193 235.519 492.637 234.682 492 232z"/>
<path style="fill:#330033; stroke:none;" d="M55.3333 233.667C55.2777 233.722 55.2222 234.778 55.6667 234.333C55.7222 234.278 55.7778 233.222 55.3333 233.667z"/>
<path style="fill:#4b0f3c; stroke:none;" d="M559 233L560 234L559 233z"/>
<path style="fill:#511b51; stroke:none;" d="M558.333 234.667C558.278 234.722 558.222 235.778 558.667 235.333C558.722 235.278 558.778 234.222 558.333 234.667z"/>
<path style="fill:#5f2457; stroke:none;" d="M120 236L120 239C120.696 237.446 120.696 237.554 120 236z"/>
<path style="fill:#800000; stroke:none;" d="M121 236L122 237L121 236z"/>
<path style="fill:#402040; stroke:none;" d="M488 236L489 237L488 236z"/>
<path style="fill:#333333; stroke:none;" d="M487 237L488 238L487 237z"/>
<path style="fill:#551c55; stroke:none;" d="M557.333 237.667C557.278 237.722 557.222 238.778 557.667 238.333C557.722 238.278 557.778 237.222 557.333 237.667z"/>
<path style="fill:#571951; stroke:none;" d="M486.333 238.667C486.278 238.722 486.222 239.778 486.667 239.333C486.722 239.278 486.778 238.222 486.333 238.667z"/>
<path style="fill:#5a1e5a; stroke:none;" d="M53.3333 239.667C53.2777 239.722 53.2222 240.778 53.6667 240.333C53.7222 240.278 53.7778 239.222 53.3333 239.667z"/>
<path style="fill:#632963; stroke:none;" d="M556 239L556 242C556.696 240.446 556.696 240.554 556 239z"/>
<path style="fill:#40002a; stroke:none;" d="M119 241L120 242L119 241z"/>
<path style="fill:#4c134c; stroke:none;" d="M52 242L52 245C52.6961 243.446 52.6961 243.554 52 242z"/>
<path style="fill:#470e47; stroke:none;" d="M118 242L118 245C118.696 243.446 118.696 243.554 118 242z"/>
<path style="fill:#682463; stroke:none;" d="M555 242L555 245C555.696 243.446 555.696 243.554 555 242z"/>
<path style="fill:#4a154a; stroke:none;" d="M51.3333 245.667C51.2777 245.722 51.2222 246.778 51.6667 246.333C51.7222 246.278 51.7778 245.222 51.3333 245.667z"/>
<path style="fill:#4e154e; stroke:none;" d="M554 245L554 248C554.696 246.446 554.696 246.554 554 245z"/>
<path style="fill:#401540; stroke:none;" d="M117.333 246.667C117.278 246.722 117.222 247.778 117.667 247.333C117.722 247.278 117.778 246.222 117.333 246.667z"/>
<path style="fill:#812a84; stroke:none;" d="M552 246C551.047 249.051 550.204 251.799 550 255C552.201 252.238 553.525 249.509 554 246L552 246z"/>
<path style="fill:#501040; stroke:none;" d="M50.3333 247.667C50.2778 247.722 50.2222 248.778 50.6667 248.333C50.7222 248.278 50.7778 247.222 50.3333 247.667z"/>
<path style="fill:#4b0f4b; stroke:none;" d="M477 247L478 248L477 247z"/>
<path style="fill:#4d0d4d; stroke:none;" d="M474.667 248.333C474.222 248.778 475.278 248.722 475.333 248.667C475.778 248.222 474.722 248.278 474.667 248.333z"/>
<path style="fill:#7e247c; stroke:none;" d="M50 249C48.5256 253.609 46.8106 258.231 46 263C48.9179 259.384 51.3963 253.598 50 249z"/>
<path style="fill:#552a55; stroke:none;" d="M116.333 249.667C116.278 249.722 116.222 250.778 116.667 250.333C116.722 250.278 116.778 249.222 116.333 249.667z"/>
<path style="fill:#682368; stroke:none;" d="M470 251C472.14 251.41 472.962 250.968 475 250C472.86 249.59 472.038 250.032 470 251z"/>
<path style="fill:#521e52; stroke:none;" d="M552 250L552 253C552.696 251.446 552.696 251.554 552 250z"/>
<path style="fill:#502050; stroke:none;" d="M115.333 251.667C115.278 251.722 115.222 252.778 115.667 252.333C115.722 252.278 115.778 251.222 115.333 251.667z"/>
<path style="fill:#400040; stroke:none;" d="M468 252L469 253L468 252z"/>
<path style="fill:#603068; stroke:none;" d="M114 253L114 256C114.696 254.446 114.696 254.554 114 253z"/>
<path style="fill:#000055; stroke:none;" d="M465 253L466 254L465 253z"/>
<path style="fill:#80327c; stroke:none;" d="M462 255C464.605 255.729 466.45 254.921 469 254C466.395 253.271 464.55 254.079 462 255z"/>
<path style="fill:#491249; stroke:none;" d="M551.333 253.667C551.278 253.722 551.222 254.778 551.667 254.333C551.722 254.278 551.778 253.222 551.333 253.667z"/>
<path style="fill:#330033; stroke:none;" d="M462.667 254.333C462.222 254.778 463.278 254.722 463.333 254.667C463.778 254.222 462.722 254.278 462.667 254.333z"/>
<path style="fill:#602953; stroke:none;" d="M460.667 255.333C460.222 255.778 461.278 255.722 461.333 255.667C461.778 255.222 460.722 255.278 460.667 255.333z"/>
<path style="fill:#63235c; stroke:none;" d="M550.333 255.667C550.278 255.722 550.222 256.778 550.667 256.333C550.722 256.278 550.778 255.222 550.333 255.667z"/>
<path style="fill:#551a55; stroke:none;" d="M47.3333 256.667C47.2778 256.722 47.2222 257.778 47.6667 257.333C47.7222 257.278 47.7778 256.222 47.3333 256.667z"/>
<path style="fill:#4a1540; stroke:none;" d="M113.333 256.667C113.278 256.722 113.222 257.778 113.667 257.333C113.722 257.278 113.778 256.222 113.333 256.667z"/>
<path style="fill:#6d2b67; stroke:none;" d="M112 257L112 260C112.696 258.446 112.696 258.554 112 257z"/>
<path style="fill:#762e74; stroke:none;" d="M548 257L548 263C549.225 260.987 549.645 259.341 550 257L548 257z"/>
<path style="fill:#240024; stroke:none;" d="M550.333 257.667C550.278 257.722 550.222 258.778 550.667 258.333C550.722 258.278 550.778 257.222 550.333 257.667z"/>
<path style="fill:#59214e; stroke:none;" d="M46.3333 258.667C46.2778 258.722 46.2222 259.778 46.6667 259.333C46.7223 259.278 46.7778 258.222 46.3333 258.667z"/>
<path style="fill:#6d3a66; stroke:none;" d="M444 259C447.001 260.172 449.841 259.398 453 259C449.999 257.828 447.159 258.602 444 259z"/>
<path style="fill:#400040; stroke:none;" d="M440 259C441.506 259.683 442.315 259.826 444 260C442.494 259.317 441.685 259.174 440 259z"/>
<path style="fill:#330033; stroke:none;" d="M112.333 260.667C112.278 260.722 112.222 261.778 112.667 261.333C112.722 261.278 112.778 260.222 112.333 260.667z"/>
<path style="fill:#800000; stroke:none;" d="M236 260L237 261L236 260z"/>
<path style="fill:#401040; stroke:none;" d="M237 260C242.216 262.189 249.381 261 255 261L292 261C286.784 258.811 279.619 260 274 260L237 260z"/>
<path style="fill:#390e39; stroke:none;" d="M418 263C423.403 259.995 429.99 261 436 261C432.385 258.917 419.028 258.203 418 263z"/>
<path style="fill:#3c0f3c; stroke:none;" d="M549 260L549 263C549.696 261.446 549.696 261.554 549 260z"/>
<path style="fill:#400d40; stroke:none;" d="M45.3333 261.667C45.2778 261.722 45.2222 262.778 45.6667 262.333C45.7222 262.278 45.7778 261.222 45.3333 261.667z"/>
<path style="fill:#5d175d; stroke:none;" d="M111 261L111 264C111.696 262.446 111.696 262.554 111 261z"/>
<path style="fill:#5d1f55; stroke:none;" d="M235.333 261.667C235.278 261.722 235.222 262.778 235.667 262.333C235.722 262.278 235.778 261.222 235.333 261.667z"/>
<path style="fill:#7c2f78; stroke:none;" d="M236 261C241.216 263.189 248.381 262 254 262C267.101 262 281.092 260.604 294 263C289.561 259.637 282.379 261 277 261L236 261z"/>
<path style="fill:#550000; stroke:none;" d="M293 261L294 262L293 261z"/>
<path style="fill:#742b74; stroke:none;" d="M419 264C424.167 261.127 430.252 262 436 262C432.444 259.951 420.019 259.243 419 264z"/>
<path style="fill:#8c278f; stroke:none;" d="M197 373L320 373L355 373C359.161 373 365.863 374.263 369.677 372.4C374.035 370.272 368.525 365.196 367.049 362.985C363.636 357.873 359.609 353.808 355.843 348.997C353.113 345.509 351.69 342.214 347 342L347 337C344.987 335.237 343.296 333.361 341 332C341.909 325.356 336 321.068 332.44 316C324.045 304.047 315.88 291.704 307.026 280.075C304.056 276.173 300.979 269.862 296 269C294.149 261.63 288.536 262 282 262L250 262C245.869 262 238.858 260.678 235.499 263.603C232.715 266.029 232.027 270.651 230.975 274C228.553 281.715 225.868 289.308 223.434 297C215.357 322.533 204.454 347.242 197 373z"/>
<path style="fill:#550000; stroke:none;" d="M234 263L235 264L234 263z"/>
<path style="fill:#6c2666; stroke:none;" d="M294 263C294.406 265.092 294.217 265.02 296 266C295.316 264.42 295.195 264.223 294 263z"/>
<path style="fill:#400040; stroke:none;" d="M548.333 263.667C548.278 263.722 548.222 264.778 548.667 264.333C548.722 264.278 548.778 263.222 548.333 263.667z"/>
<path style="fill:#430d43; stroke:none;" d="M44.3333 264.667C44.2778 264.722 44.2222 265.778 44.6667 265.333C44.7223 265.278 44.7777 264.222 44.3333 264.667z"/>
<path style="fill:#521f52; stroke:none;" d="M110 264L110 267C110.696 265.446 110.696 265.554 110 264z"/>
<path style="fill:#782c72; stroke:none;" d="M546 265C545.428 267.377 545.109 269.558 545 272C546.466 269.55 546.965 267.705 546 265z"/>
<path style="fill:#461746; stroke:none;" d="M547.333 265.667C547.278 265.722 547.222 266.778 547.667 266.333C547.722 266.278 547.778 265.222 547.333 265.667z"/>
<path style="fill:#000080; stroke:none;" d="M233 266L234 267L233 266z"/>
<path style="fill:#6e2e6e; stroke:none;" d="M296 266C296.406 268.092 296.217 268.02 298 269C297.316 267.42 297.195 267.223 296 266z"/>
<path style="fill:#3b143b; stroke:none;" d="M421.333 266.667C421.278 266.722 421.222 267.778 421.667 267.333C421.722 267.278 421.778 266.222 421.333 266.667z"/>
<path style="fill:#5e285e; stroke:none;" d="M109 267L109 270C109.696 268.446 109.696 268.554 109 267z"/>
<path style="fill:#000055; stroke:none;" d="M298 268L299 269L298 268z"/>
<path style="fill:#330033; stroke:none;" d="M422.333 268.667C422.278 268.722 422.222 269.778 422.667 269.333C422.722 269.278 422.778 268.222 422.333 268.667z"/>
<path style="fill:#621e5a; stroke:none;" d="M42.3333 270.667C42.2778 270.722 42.2222 271.778 42.6667 271.333C42.7222 271.278 42.7778 270.222 42.3333 270.667z"/>
<path style="fill:#782a68; stroke:none;" d="M108 270C106.663 272.479 106.184 274.19 106 277C107.529 274.682 108.485 272.745 108 270z"/>
<path style="fill:#400040; stroke:none;" d="M423 270L424 271L423 270z"/>
<path style="fill:#400d4d; stroke:none;" d="M231.333 271.667C231.278 271.722 231.222 272.778 231.667 272.333C231.722 272.278 231.778 271.222 231.333 271.667z"/>
<path style="fill:#4b1e4b; stroke:none;" d="M41.3333 272.667C41.2778 272.722 41.2222 273.778 41.6667 273.333C41.7223 273.278 41.7778 272.222 41.3333 272.667z"/>
<path style="fill:#551555; stroke:none;" d="M301.333 272.667C301.278 272.722 301.222 273.778 301.667 273.333C301.722 273.278 301.778 272.222 301.333 272.667z"/>
<path style="fill:#752c71; stroke:none;" d="M543 272L543 276C544.267 274.457 544.489 273.952 545 272L543 272z"/>
<path style="fill:#7b2777; stroke:none;" d="M428 273C427.694 277.627 429.918 280.884 434 283C432.366 279.405 430.654 275.934 428 273z"/>
<path style="fill:#2a002a; stroke:none;" d="M107.333 274.667C107.278 274.722 107.222 275.778 107.667 275.333C107.722 275.278 107.778 274.222 107.333 274.667z"/>
<path style="fill:#43164e; stroke:none;" d="M230.333 274.667C230.278 274.722 230.222 275.778 230.667 275.333C230.722 275.278 230.778 274.222 230.333 274.667z"/>
<path style="fill:#682968; stroke:none;" d="M302 274C302.684 275.58 302.805 275.777 304 277C303.316 275.42 303.195 275.223 302 274z"/>
<path style="fill:#390039; stroke:none;" d="M426 274L427 275L426 274z"/>
<path style="fill:#5d174d; stroke:none;" d="M40.3333 275.667C40.2778 275.722 40.2222 276.778 40.6667 276.333C40.7222 276.278 40.7778 275.222 40.3333 275.667z"/>
<path style="fill:#401540; stroke:none;" d="M543 276L543 279C543.696 277.446 543.696 277.554 543 276z"/>
<path style="fill:#401040; stroke:none;" d="M39.3333 277.667C39.2778 277.722 39.2222 278.778 39.6667 278.333C39.7223 278.278 39.7778 277.222 39.3333 277.667z"/>
<path style="fill:#5e1b57; stroke:none;" d="M105 277L105 280C106.015 278.861 106.309 278.388 107 277L105 277z"/>
<path style="fill:#330033; stroke:none;" d="M229.333 277.667C229.278 277.722 229.222 278.778 229.667 278.333C229.722 278.278 229.778 277.222 229.333 277.667z"/>
<path style="fill:#6c266c; stroke:none;" d="M542 277C541.042 280.021 540.276 282.839 540 286C541.773 283.178 542.961 280.251 542 277z"/>
<path style="fill:#333333; stroke:none;" d="M306 279L307 280L306 279z"/>
<path style="fill:#552255; stroke:none;" d="M104.333 280.667C104.278 280.722 104.222 281.778 104.667 281.333C104.722 281.278 104.778 280.222 104.333 280.667z"/>
<path style="fill:#550055; stroke:none;" d="M542.333 280.667C542.278 280.722 542.222 281.778 542.667 281.333C542.722 281.278 542.778 280.222 542.333 280.667z"/>
<path style="fill:#762b6e; stroke:none;" d="M103 281L103 285C103.71 283.241 103.71 282.759 103 281z"/>
<path style="fill:#641c59; stroke:none;" d="M309.333 283.667C309.278 283.722 309.222 284.778 309.667 284.333C309.722 284.278 309.778 283.222 309.333 283.667z"/>
<path style="fill:#4d1a4d; stroke:none;" d="M433.333 283.667C433.278 283.722 433.222 284.778 433.667 284.333C433.722 284.278 433.778 283.222 433.333 283.667z"/>
<path style="fill:#621d62; stroke:none;" d="M227.333 284.667C227.278 284.722 227.222 285.778 227.667 285.333C227.722 285.278 227.778 284.222 227.333 284.667z"/>
<path style="fill:#682870; stroke:none;" d="M102 285L102 288C102.696 286.446 102.696 286.554 102 285z"/>
<path style="fill:#6d226d; stroke:none;" d="M434 285C435.601 288.175 436.842 290.319 440 292C438.29 289.095 436.912 286.713 434 285z"/>
<path style="fill:#550e47; stroke:none;" d="M226.333 286.667C226.278 286.722 226.222 287.778 226.667 287.333C226.722 287.278 226.778 286.222 226.333 286.667z"/>
<path style="fill:#550000; stroke:none;" d="M311 286L312 287L311 286z"/>
<path style="fill:#240024; stroke:none;" d="M102.333 288.667C102.278 288.722 102.222 289.778 102.667 289.333C102.722 289.278 102.778 288.222 102.333 288.667z"/>
<path style="fill:#6c276c; stroke:none;" d="M226 288C225.014 289.479 225 289.203 225 291C226.289 289.557 226.401 289.766 226 288z"/>
<path style="fill:#6e2767; stroke:none;" d="M312 288C312.684 289.58 312.805 289.777 314 291C313.316 289.42 313.195 289.223 312 288z"/>
<path style="fill:#682b64; stroke:none;" d="M538 288L538 291C538.696 289.446 538.696 289.554 538 288z"/>
<path style="fill:#471452; stroke:none;" d="M35.3333 289.667C35.2778 289.722 35.2222 290.778 35.6667 290.333C35.7222 290.278 35.7778 289.222 35.3333 289.667z"/>
<path style="fill:#390039; stroke:none;" d="M101.333 290.667C101.278 290.722 101.222 291.778 101.667 291.333C101.722 291.278 101.778 290.222 101.333 290.667z"/>
<path style="fill:#4b1e4b; stroke:none;" d="M34.3333 291.667C34.2778 291.722 34.2222 292.778 34.6667 292.333C34.7222 292.278 34.7778 291.222 34.3333 291.667z"/>
<path style="fill:#842e7c; stroke:none;" d="M35 291C33.107 295.056 32.0961 298.512 32 303C34.03 299.682 36.0598 294.811 35 291z"/>
<path style="fill:#581a58; stroke:none;" d="M100 291L100 294C100.696 292.446 100.696 292.554 100 291z"/>
<path style="fill:#4b0f4b; stroke:none;" d="M224.333 291.667C224.278 291.722 224.222 292.778 224.667 292.333C224.722 292.278 224.778 291.222 224.333 291.667z"/>
<path style="fill:#662660; stroke:none;" d="M315.333 291.667C315.278 291.722 315.222 292.778 315.667 292.333C315.722 292.278 315.778 291.222 315.333 291.667z"/>
<path style="fill:#400040; stroke:none;" d="M439.333 292.667C439.278 292.722 439.222 293.778 439.667 293.333C439.722 293.278 439.778 292.222 439.333 292.667z"/>
<path style="fill:#391c39; stroke:none;" d="M537.333 292.667C537.278 292.722 537.222 293.778 537.667 293.333C537.722 293.278 537.778 292.222 537.333 292.667z"/>
<path style="fill:#400040; stroke:none;" d="M316 293L317 294L316 293z"/>
<path style="fill:#722772; stroke:none;" d="M98 294L97 300C98.8842 298.02 99.4693 296.69 100 294L98 294z"/>
<path style="fill:#000055; stroke:none;" d="M100 294L101 295L100 294M223 294L224 295L223 294z"/>
<path style="fill:#73296b; stroke:none;" d="M316 294C317.299 296.763 318.553 298.164 321 300C319.701 297.237 318.447 295.836 316 294z"/>
<path style="fill:#390039; stroke:none;" d="M440 294L441 295L440 294z"/>
<path style="fill:#491849; stroke:none;" d="M536.333 294.667C536.278 294.722 536.222 295.778 536.667 295.333C536.722 295.278 536.778 294.222 536.333 294.667z"/>
<path style="fill:#602a6a; stroke:none;" d="M223 295L223 298C223.696 296.446 223.696 296.554 223 295z"/>
<path style="fill:#7e2978; stroke:none;" d="M534 297C533.089 299.782 532.439 302.431 531 305C534.578 304.552 535.192 300.109 534 297z"/>
<path style="fill:#552255; stroke:none;" d="M535 297L535 300C535.696 298.446 535.696 298.554 535 297z"/>
<path style="fill:#602060; stroke:none;" d="M222.333 298.667C222.278 298.722 222.222 299.778 222.667 299.333C222.722 299.278 222.778 298.222 222.333 298.667z"/>
<path style="fill:#550055; stroke:none;" d="M443.333 298.667C443.278 298.722 443.222 299.778 443.667 299.333C443.722 299.278 443.778 298.222 443.333 298.667z"/>
<path style="fill:#6b2163; stroke:none;" d="M31 300L30 305C31.475 303.065 31.791 302.307 31 300z"/>
<path style="fill:#762d76; stroke:none;" d="M96 300L96 304C96.7102 302.241 96.7102 301.759 96 300z"/>
<path style="fill:#330033; stroke:none;" d="M97.3333 300.667C97.2778 300.722 97.2222 301.778 97.6667 301.333C97.7222 301.278 97.7778 300.222 97.3333 300.667z"/>
<path style="fill:#460046; stroke:none;" d="M444 300L445 301L444 300z"/>
<path style="fill:#512346; stroke:none;" d="M534 300L534 303C534.696 301.446 534.696 301.554 534 300z"/>
<path style="fill:#551555; stroke:none;" d="M221.333 301.667C221.278 301.722 221.222 302.778 221.667 302.333C221.722 302.278 221.778 301.222 221.333 301.667z"/>
<path style="fill:#65225e; stroke:none;" d="M322.333 301.667C322.278 301.722 322.222 302.778 322.667 302.333C322.722 302.278 322.778 301.222 322.333 301.667z"/>
<path style="fill:#631c55; stroke:none;" d="M220.333 303.667C220.278 303.722 220.222 304.778 220.667 304.333C220.722 304.278 220.778 303.222 220.333 303.667z"/>
<path style="fill:#3b143b; stroke:none;" d="M96 304L97 305L96 304z"/>
<path style="fill:#461746; stroke:none;" d="M447 304L448 305L447 304z"/>
<path style="fill:#491249; stroke:none;" d="M29.3333 305.667C29.2778 305.722 29.2222 306.778 29.6667 306.333C29.7222 306.278 29.7778 305.222 29.3333 305.667z"/>
<path style="fill:#470e47; stroke:none;" d="M95 306L95 309C95.6961 307.446 95.6961 307.554 95 306z"/>
<path style="fill:#3d0c3d; stroke:none;" d="M219.333 306.667C219.278 306.722 219.222 307.778 219.667 307.333C219.722 307.278 219.778 306.222 219.333 306.667z"/>
<path style="fill:#550000; stroke:none;" d="M326 306L327 307L326 306z"/>
<path style="fill:#401540; stroke:none;" d="M449.333 306.667C449.278 306.722 449.222 307.778 449.667 307.333C449.722 307.278 449.778 306.222 449.333 306.667z"/>
<path style="fill:#401040; stroke:none;" d="M532 306L532 309C532.696 307.446 532.696 307.554 532 306z"/>
<path style="fill:#490c49; stroke:none;" d="M28.3333 308.667C28.2778 308.722 28.2222 309.778 28.6667 309.333C28.7222 309.278 28.7778 308.222 28.3333 308.667z"/>
<path style="fill:#330033; stroke:none;" d="M450.333 308.667C450.278 308.722 450.222 309.778 450.667 309.333C450.722 309.278 450.778 308.222 450.333 308.667z"/>
<path style="fill:#461746; stroke:none;" d="M94.3333 309.667C94.2778 309.722 94.2222 310.778 94.6667 310.333C94.7222 310.278 94.7778 309.222 94.3333 309.667z"/>
<path style="fill:#492449; stroke:none;" d="M531.333 309.667C531.278 309.722 531.222 310.778 531.667 310.333C531.722 310.278 531.778 309.222 531.333 309.667z"/>
<path style="fill:#7e2c76; stroke:none;" d="M28 310L27 314C28.6556 312.596 28.7511 312.046 28 310z"/>
<path style="fill:#64275d; stroke:none;" d="M329.333 310.667C329.278 310.722 329.222 311.778 329.667 311.333C329.722 311.278 329.778 310.222 329.333 310.667z"/>
<path style="fill:#72216f; stroke:none;" d="M451 310C452.103 311.457 452.543 311.897 454 313C453.101 310.876 453.124 310.899 451 310z"/>
<path style="fill:#752267; stroke:none;" d="M93 311C92.4382 312.801 92.1759 314.122 92 316C93.1326 314.101 93.4734 313.143 93 311z"/>
<path style="fill:#551c55; stroke:none;" d="M530.333 311.667C530.278 311.722 530.222 312.778 530.667 312.333C530.722 312.278 530.778 311.222 530.333 311.667z"/>
<path style="fill:#6c2465; stroke:none;" d="M330 312C330.684 313.58 330.805 313.777 332 315C331.316 313.42 331.195 313.223 330 312z"/>
<path style="fill:#551555; stroke:none;" d="M529.333 313.667C529.278 313.722 529.222 314.778 529.667 314.333C529.722 314.278 529.778 313.222 529.333 313.667z"/>
<path style="fill:#592659; stroke:none;" d="M216 314L216 317C216.696 315.446 216.696 315.554 216 314z"/>
<path style="fill:#401540; stroke:none;" d="M454 314L455 315L454 314z"/>
<path style="fill:#6e2968; stroke:none;" d="M332 315C332.936 316.949 333.392 317.55 335 319C334.064 317.051 333.608 316.45 332 315z"/>
<path style="fill:#550055; stroke:none;" d="M455 315C455.684 316.58 455.805 316.777 457 318C456.316 316.42 456.195 316.223 455 315z"/>
<path style="fill:#6b2c61; stroke:none;" d="M528 315L528 319C528.71 317.24 528.71 316.76 528 315z"/>
<path style="fill:#511751; stroke:none;" d="M25.3333 316.667C25.2778 316.722 25.2222 317.778 25.6667 317.333C25.7222 317.278 25.7778 316.222 25.3333 316.667z"/>
<path style="fill:#400040; stroke:none;" d="M91.3333 317.667C91.2778 317.722 91.2222 318.778 91.6667 318.333C91.7222 318.278 91.7778 317.222 91.3333 317.667z"/>
<path style="fill:#4b1e4b; stroke:none;" d="M215 317L215 320C215.696 318.446 215.696 318.554 215 317z"/>
<path style="fill:#6d245f; stroke:none;" d="M90.3333 318.667C90.2778 318.722 90.2222 319.778 90.6667 319.333C90.7222 319.278 90.7778 318.222 90.3333 318.667z"/>
<path style="fill:#4e0b43; stroke:none;" d="M24.3333 319.667C24.2778 319.722 24.2222 320.778 24.6667 320.333C24.7222 320.278 24.7778 319.222 24.3333 319.667z"/>
<path style="fill:#7a316e; stroke:none;" d="M335 319C335.684 320.58 335.805 320.777 337 322C336.316 320.42 336.195 320.223 335 319z"/>
<path style="fill:#390039; stroke:none;" d="M90 320L91 321L90 320z"/>
<path style="fill:#370037; stroke:none;" d="M214.333 320.667C214.278 320.722 214.222 321.778 214.667 321.333C214.722 321.278 214.778 320.222 214.333 320.667z"/>
<path style="fill:#3b003b; stroke:none;" d="M527 320L528 321L527 320z"/>
<path style="fill:#772870; stroke:none;" d="M24 321C22.9877 323.373 22.3785 325.449 22 328C23.9913 325.693 24.9691 323.961 24 321z"/>
<path style="fill:#510c51; stroke:none;" d="M89 321L89 324C89.6961 322.446 89.6961 322.554 89 321z"/>
<path style="fill:#551c4c; stroke:none;" d="M337.333 321.667C337.278 321.722 337.222 322.778 337.667 322.333C337.722 322.278 337.778 321.222 337.333 321.667z"/>
<path style="fill:#441144; stroke:none;" d="M526.333 321.667C526.278 321.722 526.222 322.778 526.667 322.333C526.722 322.278 526.778 321.222 526.333 321.667z"/>
<path style="fill:#3b143b; stroke:none;" d="M213.333 323.667C213.278 323.722 213.222 324.778 213.667 324.333C213.722 324.278 213.778 323.222 213.333 323.667z"/>
<path style="fill:#390039; stroke:none;" d="M460 323L461 324L460 323z"/>
<path style="fill:#402040; stroke:none;" d="M525.333 323.667C525.278 323.722 525.222 324.778 525.667 324.333C525.722 324.278 525.778 323.222 525.333 323.667z"/>
<path style="fill:#5c1f5c; stroke:none;" d="M88 324L88 327C88.6961 325.446 88.6961 325.554 88 324z"/>
<path style="fill:#400d4d; stroke:none;" d="M461 324L462 325L461 324z"/>
<path style="fill:#510d43; stroke:none;" d="M462 325L463 326L462 325z"/>
<path style="fill:#552244; stroke:none;" d="M524 325L525 326L524 325z"/>
<path style="fill:#400040; stroke:none;" d="M212 326L213 327L212 326z"/>
<path style="fill:#391c39; stroke:none;" d="M523.333 326.667C523.278 326.722 523.222 327.778 523.667 327.333C523.722 327.278 523.778 326.222 523.333 326.667z"/>
<path style="fill:#612361; stroke:none;" d="M87.3333 327.667C87.2778 327.722 87.2222 328.778 87.6667 328.333C87.7222 328.278 87.7778 327.222 87.3333 327.667z"/>
<path style="fill:#662561; stroke:none;" d="M341 327C341.684 328.58 341.805 328.777 343 330C342.316 328.42 342.195 328.223 341 327z"/>
<path style="fill:#490049; stroke:none;" d="M463 327L464 328L463 327z"/>
<path style="fill:#662266; stroke:none;" d="M21.3333 328.667C21.2778 328.722 21.2222 329.778 21.6667 329.333C21.7222 329.278 21.7778 328.222 21.3333 328.667z"/>
<path style="fill:#2a002a; stroke:none;" d="M522.333 328.667C522.278 328.722 522.222 329.778 522.667 329.333C522.722 329.278 522.778 328.222 522.333 328.667z"/>
<path style="fill:#400040; stroke:none;" d="M464 329L465 330L464 329z"/>
<path style="fill:#551155; stroke:none;" d="M20 330L19 334C20.303 332.332 20.553 332.008 20 330z"/>
<path style="fill:#852a82; stroke:none;" d="M341 331C342.798 333.424 344.407 335.457 347 337C346.66 339.018 346.677 339.968 347 342C349.337 342.206 350.889 342.937 353 344C350.984 338.91 347.066 334.542 344 330C342.203 330 342.479 330.014 341 331z"/>
<path style="fill:#702b70; stroke:none;" d="M465 330C466.164 332.166 467.514 334.034 469 336C469.543 332.722 468.04 331.04 465 330z"/>
<path style="fill:#5b1249; stroke:none;" d="M520 330L519 334C520.608 332.55 521.064 331.949 522 330L520 330z"/>
<path style="fill:#571951; stroke:none;" d="M85 332L85 335C85.6961 333.446 85.6961 333.554 85 332z"/>
<path style="fill:#4e1445; stroke:none;" d="M209.333 334.667C209.278 334.722 209.222 335.778 209.667 335.333C209.722 335.278 209.778 334.222 209.333 334.667z"/>
<path style="fill:#511751; stroke:none;" d="M18.3333 335.667C18.2778 335.722 18.2222 336.778 18.6667 336.333C18.7222 336.278 18.7778 335.222 18.3333 335.667z"/>
<path style="fill:#550000; stroke:none;" d="M85 335L86 336L85 335z"/>
<path style="fill:#461746; stroke:none;" d="M347 335L348 336L347 335z"/>
<path style="fill:#330033; stroke:none;" d="M84.3333 336.667C84.2778 336.722 84.2222 337.778 84.6667 337.333C84.7222 337.278 84.7778 336.222 84.3333 336.667z"/>
<path style="fill:#652465; stroke:none;" d="M83 337L83 340C83.6961 338.446 83.6961 338.554 83 337z"/>
<path style="fill:#490049; stroke:none;" d="M208 337L208 340C208.696 338.446 208.696 338.554 208 337z"/>
<path style="fill:#5c1f5c; stroke:none;" d="M17.3333 338.667C17.2778 338.722 17.2222 339.778 17.6667 339.333C17.7222 339.278 17.7778 338.222 17.3333 338.667z"/>
<path style="fill:#3b143b; stroke:none;" d="M349 338L350 339L349 338z"/>
<path style="fill:#490049; stroke:none;" d="M471.333 338.667C471.278 338.722 471.222 339.778 471.667 339.333C471.722 339.278 471.778 338.222 471.333 338.667z"/>
<path style="fill:#71246d; stroke:none;" d="M472 338L473 342C473.393 340.076 473.146 339.64 472 338z"/>
<path style="fill:#4f1a4f; stroke:none;" d="M514 339L515 340L514 339z"/>
<path style="fill:#622762; stroke:none;" d="M82.3333 340.667C82.2778 340.722 82.2222 341.778 82.6667 341.333C82.7222 341.278 82.7778 340.222 82.3333 340.667z"/>
<path style="fill:#64275d; stroke:none;" d="M207.333 341.667C207.278 341.722 207.222 342.778 207.667 342.333C207.722 342.278 207.778 341.222 207.333 341.667z"/>
<path style="fill:#402060; stroke:none;" d="M474.333 342.667C474.278 342.722 474.222 343.778 474.667 343.333C474.722 343.278 474.778 342.222 474.333 342.667z"/>
<path style="fill:#7e2b77; stroke:none;" d="M507 347C508.753 345.67 509.67 344.753 511 343C508.373 343.839 507.839 344.374 507 347z"/>
<path style="fill:#832f7a; stroke:none;" d="M353 344C353.806 346.892 354.677 348.094 357 350C356.194 347.108 355.323 345.906 353 344z"/>
<path style="fill:#550055; stroke:none;" d="M475.333 344.667C475.278 344.722 475.222 345.778 475.667 345.333C475.722 345.278 475.778 344.222 475.333 344.667z"/>
<path style="fill:#5f1955; stroke:none;" d="M15.3333 345.667C15.2778 345.722 15.2222 346.778 15.6667 346.333C15.7222 346.278 15.7778 345.222 15.3333 345.667z"/>
<path style="fill:#622b62; stroke:none;" d="M80 346L80 348C81.6352 347.455 81.4549 347.635 82 346L80 346z"/>
<path style="fill:#602060; stroke:none;" d="M205 346L205 349C205.696 347.446 205.696 347.554 205 346z"/>
<path style="fill:#822c7b; stroke:none;" d="M14 347C12.846 353.494 9.86046 359.337 9 366C12.7992 360.975 15.3736 353.25 16 347L14 347z"/>
<path style="fill:#490049; stroke:none;" d="M477 347L478 348L477 347z"/>
<path style="fill:#330033; stroke:none;" d="M80.3333 348.667C80.2778 348.722 80.2222 349.778 80.6667 349.333C80.7222 349.278 80.7778 348.222 80.3333 348.667z"/>
<path style="fill:#5e2159; stroke:none;" d="M357.333 348.667C357.278 348.722 357.222 349.778 357.667 349.333C357.722 349.278 357.778 348.222 357.333 348.667z"/>
<path style="fill:#550055; stroke:none;" d="M478.333 348.667C478.278 348.722 478.222 349.778 478.667 349.333C478.722 349.278 478.778 348.222 478.333 348.667z"/>
<path style="fill:#862282; stroke:none;" d="M479 348C480.108 352.624 483.723 355.51 485 360C491.111 359.026 497.914 354.561 502 350C496.843 349.994 491.383 353.383 489 358C485.594 354.598 482.841 351.036 479 348z"/>
<path style="fill:#611a58; stroke:none;" d="M502 351L506 349C503.777 348.631 503.265 349.14 502 351z"/>
<path style="fill:#4e144e; stroke:none;" d="M13.3333 349.667C13.2778 349.722 13.2222 350.778 13.6667 350.333C13.7222 350.278 13.7778 349.222 13.3333 349.667z"/>
<path style="fill:#4d004d; stroke:none;" d="M79.3333 350.667C79.2778 350.722 79.2222 351.778 79.6667 351.333C79.7222 351.278 79.7778 350.222 79.3333 350.667z"/>
<path style="fill:#7b277d; stroke:none;" d="M357 350C358.104 352.357 358.956 353.376 361 355C359.896 352.643 359.044 351.624 357 350z"/>
<path style="fill:#4e003b; stroke:none;" d="M12.3333 351.667C12.2778 351.722 12.2222 352.778 12.6667 352.333C12.7222 352.278 12.7778 351.222 12.3333 351.667z"/>
<path style="fill:#430d43; stroke:none;" d="M203.333 351.667C203.278 351.722 203.222 352.778 203.667 352.333C203.722 352.278 203.778 351.222 203.333 351.667z"/>
<path style="fill:#742769; stroke:none;" d="M77 353L77 356C78.0154 354.861 78.3087 354.388 79 353L77 353z"/>
<path style="fill:#330033; stroke:none;" d="M202.333 353.667C202.278 353.722 202.222 354.778 202.667 354.333C202.722 354.278 202.778 353.222 202.333 353.667z"/>
<path style="fill:#773571; stroke:none;" d="M203 353L202 359C203.305 356.819 203.736 355.433 203 353z"/>
<path style="fill:#490049; stroke:none;" d="M497.667 353.333C497.222 353.778 498.278 353.722 498.333 353.667C498.778 353.222 497.722 353.278 497.667 353.333z"/>
<path style="fill:#400040; stroke:none;" d="M496 354L497 355L496 354z"/>
<path style="fill:#550055; stroke:none;" d="M483 355C483.684 356.58 483.805 356.777 485 358C484.316 356.42 484.195 356.223 483 355z"/>
<path style="fill:#330033; stroke:none;" d="M494.667 355.333C494.222 355.778 495.278 355.722 495.333 355.667C495.778 355.222 494.722 355.278 494.667 355.333z"/>
<path style="fill:#521447; stroke:none;" d="M493 356L494 357L493 356z"/>
<path style="fill:#551c55; stroke:none;" d="M76.3333 357.667C76.2778 357.722 76.2222 358.778 76.6667 358.333C76.7222 358.278 76.7778 357.222 76.3333 357.667z"/>
<path style="fill:#402040; stroke:none;" d="M491.667 357.333C491.222 357.778 492.278 357.722 492.333 357.667C492.778 357.222 491.722 357.278 491.667 357.333z"/>
<path style="fill:#552b55; stroke:none;" d="M201.333 358.667C201.278 358.722 201.222 359.778 201.667 359.333C201.722 359.278 201.778 358.222 201.333 358.667z"/>
<path style="fill:#712f5e; stroke:none;" d="M364 358C364.684 359.58 364.805 359.777 366 361C365.316 359.42 365.195 359.223 364 358z"/>
<path style="fill:#550055; stroke:none;" d="M488.667 359.333C488.222 359.778 489.278 359.722 489.333 359.667C489.778 359.222 488.722 359.278 488.667 359.333z"/>
<path style="fill:#5b1b5b; stroke:none;" d="M9.33333 361.667C9.27778 361.722 9.22222 362.778 9.66667 362.333C9.72223 362.278 9.77777 361.222 9.33333 361.667z"/>
<path style="fill:#7e2d74; stroke:none;" d="M74 361C73.428 363.377 73.1095 365.558 73 368L76 364C75.3087 362.612 75.0154 362.139 74 361z"/>
<path style="fill:#240024; stroke:none;" d="M75.3333 361.667C75.2778 361.722 75.2222 362.778 75.6667 362.333C75.7222 362.278 75.7778 361.222 75.3333 361.667z"/>
<path style="fill:#5e265e; stroke:none;" d="M200.333 361.667C200.278 361.722 200.222 362.778 200.667 362.333C200.722 362.278 200.778 361.222 200.333 361.667z"/>
<path style="fill:#401540; stroke:none;" d="M366 361L367 362L366 361z"/>
<path style="fill:#511b51; stroke:none;" d="M8 363L8 366C8.6961 364.446 8.6961 364.554 8 363z"/>
<path style="fill:#551c55; stroke:none;" d="M199 363L199 366C199.696 364.446 199.696 364.554 199 363z"/>
<path style="fill:#723075; stroke:none;" d="M367 363C368.104 365.357 368.956 366.376 371 368C369.896 365.643 369.044 364.624 367 363z"/>
<path style="fill:#360d43; stroke:none;" d="M74 364L74 367C74.6961 365.446 74.6961 365.554 74 364z"/>
<path style="fill:#5b2860; stroke:none;" d="M7.33333 366.667C7.27777 366.722 7.22223 367.778 7.66667 367.333C7.72222 367.278 7.77778 366.222 7.33333 366.667z"/>
<path style="fill:#662660; stroke:none;" d="M198.333 366.667C198.278 366.722 198.222 367.778 198.667 367.333C198.722 367.278 198.778 366.222 198.333 366.667z"/>
<path style="fill:#5a265a; stroke:none;" d="M6 368C5.57671 370.6 5.06429 372.178 7 374C6.83927 371.84 6.82682 369.986 6 368z"/>
<path style="fill:#712a71; stroke:none;" d="M197 368L196 374L374 374L373 369C368.52 373.89 363.203 373 357 373L327 373L197 373C197.592 370.845 197.774 370.044 197 368z"/>
<path style="fill:#550055; stroke:none;" d="M72.3333 369.667C72.2778 369.722 72.2222 370.778 72.6667 370.333C72.7222 370.278 72.7778 369.222 72.3333 369.667z"/>
<path style="fill:#692162; stroke:none;" d="M71 370L71 373C71.6961 371.446 71.6961 371.554 71 370z"/>
<path style="fill:#6f276f; stroke:none;" d="M7 373C12.7073 375.395 20.846 374 27 374L71 374C65.2927 371.605 57.154 373 51 373L7 373z"/>
</svg>
